<?xml version="1.0" standalone="no"?>
<!DOCTYPE svg PUBLIC "-//W3C//DTD SVG 20010904//EN"
 "http://www.w3.org/TR/2001/REC-SVG-20010904/DTD/svg10.dtd">
<svg version="1.0" xmlns="http://www.w3.org/2000/svg"
 width="271.000000pt" height="271.000000pt" viewBox="0 0 271.000000 271.000000"
 preserveAspectRatio="xMidYMid meet">
<metadata>
Created by potrace 1.11, written by Peter Selinger 2001-2013
</metadata>
<g transform="translate(0.000000,271.000000) scale(0.100000,-0.100000)"
fill="#000000" stroke="none">
<path d="M936 2258 c-6 -17 -26 -116 -26 -127 0 -4 25 -13 55 -20 132 -30 233
-109 285 -224 47 -105 47 -105 3 -109 l-37 -3 -212 -570 c-117 -314 -211 -571
-210 -572 3 -3 180 -42 182 -40 0 1 81 229 179 507 98 278 179 507 181 509 5
6 8 -6 49 -184 47 -203 130 -458 193 -588 54 -114 131 -237 147 -237 12 0 177
59 184 65 2 2 -18 32 -44 67 -120 159 -222 431 -330 873 -71 294 -117 400
-217 502 -58 59 -133 102 -228 131 -98 30 -149 36 -154 20z"/>
</g>
</svg>
